<?xml version="1.0" encoding="utf-8"?>
<!-- Generator: Adobe Illustrator 26.0.3, SVG Export Plug-In . SVG Version: 6.00 Build 0)  -->
<svg version="1.0" id="katman_1" xmlns="http://www.w3.org/2000/svg" xmlns:xlink="http://www.w3.org/1999/xlink" x="0px" y="0px"
	 viewBox="0 0 600 450" style="enable-background:new 0 0 600 450;" xml:space="preserve">
<style type="text/css">
	.st0{fill-rule:evenodd;clip-rule:evenodd;fill:#FF6E14;}
</style>
<g>
	<path class="st0" d="M186.3,253.1c7.2,0,11.7-5.7,11.7-14.2c0-8.5-4.4-14.2-11.7-14.2c-7.2,0-11.6,5.7-11.6,14.2
		C174.7,247.3,179.1,253,186.3,253.1L186.3,253.1z M191.7,210.8c13.8,0,22.8,11.8,23,27.8c0,16.2-9.5,28.2-23.4,28.2
		c-7,0.2-13.6-3.4-17.3-9.3h-0.2v8.2h-15.1v-72.3c0-5.5,3.7-8.9,8-8.9c4.3,0,8,3.4,8,8.9v25.8h0.2
		C178.8,213.9,185,210.7,191.7,210.8L191.7,210.8z M247.3,253.1c7.2,0,11.6-5.7,11.6-14.2c0-8.5-4.4-14.2-11.6-14.2
		c-7.2,0-11.6,5.7-11.6,14.2C235.6,247.3,240,253.1,247.3,253.1L247.3,253.1z M247.3,210.8c17,0,28,11.6,28,28c0,16.4-11,28-28,28
		c-17,0-28-11.6-28-28C219.2,222.4,230.2,210.8,247.3,210.8L247.3,210.8z M461.2,210.8c4.4,0,8.1,3.4,8.1,8.9v46.1h-16.2v-46.1
		C453.2,214.2,456.8,210.8,461.2,210.8L461.2,210.8z M461.2,182.7c13.1,0,13.1,19.6,0,19.6h0C448.1,202.3,448.1,182.7,461.2,182.7
		L461.2,182.7z M511.8,210.8c11.2,0,17.2,8,17.2,20v35h-16.2v-30.4c0-7.1-3.3-9.5-7.5-9.5c-6.3,0-11,5.3-11,16.5v23.4h-16.2v-46.6
		c0-5.3,3.5-8.4,7.5-8.4c4.1,0,7.5,3.1,7.5,8.4v2h0.2C497.3,214.8,504.2,210.8,511.8,210.8L511.8,210.8z M418.3,253.1
		c7.2,0,11.6-5.7,11.6-14.2c0-8.5-4.4-14.2-11.6-14.2c-7.2,0-11.6,5.7-11.6,14.2C406.7,247.3,411.1,253.1,418.3,253.1L418.3,253.1z
		 M418.3,210.8c17,0,28,11.6,28,28c0,16.4-11,28-28,28c-17,0-28-11.6-28-28C390.3,222.4,401.3,210.8,418.3,210.8L418.3,210.8z
		 M366.4,224.8c-7,0-11.3,5.2-11.3,14c0,8.8,4.3,14,11.3,14c4,0.2,7.8-1.9,9.8-5.4h0.2l11.8,7.5c-4.1,8-12.6,11.9-22.3,11.9
		c-16.8,0-27.2-11.6-27.2-28c0-16.4,10.4-28,27.2-28c9.7,0,18.3,3.8,22.3,11.8l-11.8,7.5h-0.2C374.2,226.7,370.4,224.7,366.4,224.8
		L366.4,224.8z M315.4,210.8c11.2,0,17.2,8,17.3,20v35h-16.2v-30.4c0-7.1-3.3-9.5-7.5-9.5c-6.2,0-11,5.3-11,16.5v23.4h-16.2v-46.6
		c0-5.3,3.4-8.4,7.5-8.4c4.1,0,7.5,3.1,7.5,8.4v2h0.2C300.9,214.8,307.9,210.8,315.4,210.8L315.4,210.8z M114.7,235.6
		c0.1,2.1,0.4,4.1,1.1,6l18-13.3c-1.6-3-4.8-4.8-8.2-4.7C120.5,223.6,114.7,227.5,114.7,235.6L114.7,235.6z M130.4,253.6
		c5.8-0.3,11.1-3.7,13.8-8.9l10.6,7.7c-4.1,8.3-12.4,14.4-26.4,14.4c-6.6,0-13-2.4-18-6.8c-7.1,4.7-13.1,6.7-19.1,6.7
		c-12.1,0-20.7-8.1-20.7-20.3v-53c0-5.5,3.6-8.9,8-8.9c4.4,0,8,3.4,8,8.9v51.7c0,5.2,2.3,8,7.1,8c2.6,0,5.4-1.5,9.1-3.5
		c-1.7-4.2-2.6-8.6-2.6-13.2c0-11.4,8.1-25.6,25.3-25.6c14.8,0,22.8,8.6,26.1,19.5l-28.6,20.5C125,252.6,127.6,253.7,130.4,253.6
		L130.4,253.6z M130.4,253.6"/>
</g>
</svg>
